<?xml version="1.0" encoding="UTF-8"?>
<svg version="1.1" xmlns="http://www.w3.org/2000/svg" width="155" height="155">
<path d="M0 0 C51.15 0 102.3 0 155 0 C155 51.15 155 102.3 155 155 C103.85 155 52.7 155 0 155 C0 103.85 0 52.7 0 0 Z " fill="#949494" transform="translate(0,0)"/>
<path d="M0 0 C51.15 0 102.3 0 155 0 C155 51.15 155 102.3 155 155 C103.85 155 52.7 155 0 155 C0 103.85 0 52.7 0 0 Z M71 2 C71 2.99 71 3.98 71 5 C69.02 5 67.04 5 65 5 C65 5.99 65 6.98 65 8 C62.69 8 60.38 8 58 8 C58 8.99 58 9.98 58 11 C57.01 11 56.02 11 55 11 C55 12.32 55 13.64 55 15 C53.02 15 51.04 15 49 15 C49 15.99 49 16.98 49 18 C47.02 18 45.04 18 43 18 C43 18.99 43 19.98 43 21 C40.69 21 38.38 21 36 21 C36 21.99 36 22.98 36 24 C35.01 24 34.02 24 33 24 C33 24.99 33 25.98 33 27 C31.02 27 29.04 27 27 27 C27 27.99 27 28.98 27 30 C25.02 30 23.04 30 21 30 C21 30.99 21 31.98 21 33 C20.01 33 19.02 33 18 33 C18 33.99 18 34.98 18 36 C15.69 36 13.38 36 11 36 C11 37.32 11 38.64 11 40 C9.02 40 7.04 40 5 40 C5 40.99 5 41.98 5 43 C4.01 43 3.02 43 2 43 C2 66.76 2 90.52 2 115 C3.98 115 5.96 115 8 115 C8 115.99 8 116.98 8 118 C10.31 118 12.62 118 15 118 C15 118.99 15 119.98 15 121 C16.98 121 18.96 121 21 121 C21 121.99 21 122.98 21 124 C22.98 124 24.96 124 27 124 C27 124.99 27 125.98 27 127 C27.99 127 28.98 127 30 127 C30 127.99 30 128.98 30 130 C31.98 130 33.96 130 36 130 C36 130.99 36 131.98 36 133 C38.31 133 40.62 133 43 133 C43 133.99 43 134.98 43 136 C44.98 136 46.96 136 49 136 C49 137.32 49 138.64 49 140 C49.99 140 50.98 140 52 140 C52 140.99 52 141.98 52 143 C53.98 143 55.96 143 58 143 C58 143.99 58 144.98 58 146 C60.31 146 62.62 146 65 146 C65 146.99 65 147.98 65 149 C66.98 149 68.96 149 71 149 C71 149.99 71 150.98 71 152 C74.96 152 78.92 152 83 152 C83 151.01 83 150.02 83 149 C85.31 149 87.62 149 90 149 C90 148.01 90 147.02 90 146 C91.98 146 93.96 146 96 146 C96 145.01 96 144.02 96 143 C97.98 143 99.96 143 102 143 C102 142.01 102 141.02 102 140 C103.98 140 105.96 140 108 140 C108 138.68 108 137.36 108 136 C108.99 136 109.98 136 111 136 C111 135.01 111 134.02 111 133 C113.31 133 115.62 133 118 133 C118 132.01 118 131.02 118 130 C119.98 130 121.96 130 124 130 C124 129.01 124 128.02 124 127 C124.99 127 125.98 127 127 127 C127 126.01 127 125.02 127 124 C128.98 124 130.96 124 133 124 C133 123.01 133 122.02 133 121 C133.99 121 134.98 121 136 121 C136 120.01 136 119.02 136 118 C137.32 118 138.64 118 140 118 C140 117.01 140 116.02 140 115 C140.99 115 141.98 115 143 115 C143 112.69 143 110.38 143 108 C143.99 108 144.98 108 146 108 C146 107.01 146 106.02 146 105 C146.99 105 147.98 105 149 105 C149 102.03 149 99.06 149 96 C149.99 96 150.98 96 152 96 C152 78.51 152 61.02 152 43 C151.01 43 150.02 43 149 43 C149 42.01 149 41.02 149 40 C147.02 40 145.04 40 143 40 C143 38.68 143 37.36 143 36 C140.69 36 138.38 36 136 36 C136 35.01 136 34.02 136 33 C135.01 33 134.02 33 133 33 C133 32.01 133 31.02 133 30 C131.02 30 129.04 30 127 30 C127 29.01 127 28.02 127 27 C125.02 27 123.04 27 121 27 C121 26.01 121 25.02 121 24 C120.01 24 119.02 24 118 24 C118 23.01 118 22.02 118 21 C115.69 21 113.38 21 111 21 C111 20.01 111 19.02 111 18 C109.02 18 107.04 18 105 18 C105 17.01 105 16.02 105 15 C103.02 15 101.04 15 99 15 C99 13.68 99 12.36 99 11 C98.01 11 97.02 11 96 11 C96 10.01 96 9.02 96 8 C94.02 8 92.04 8 90 8 C90 7.01 90 6.02 90 5 C87.69 5 85.38 5 83 5 C83 4.01 83 3.02 83 2 C79.04 2 75.08 2 71 2 Z " fill="#FFFFFF" transform="translate(0,0)"/>
<path d="M0 0 C0.99 0 1.98 0 3 0 C3 0.99 3 1.98 3 3 C3.99 3 4.98 3 6 3 C6 3.99 6 4.98 6 6 C8.31 6 10.62 6 13 6 C13 6.99 13 7.98 13 9 C14.98 9 16.96 9 19 9 C19 9.99 19 10.98 19 12 C19.99 12 20.98 12 22 12 C22 12.99 22 13.98 22 15 C23.98 15 25.96 15 28 15 C28 16.32 28 17.64 28 19 C30.31 19 32.62 19 35 19 C35 19.99 35 20.98 35 22 C36.98 22 38.96 22 41 22 C41 22.99 41 23.98 41 25 C41.99 25 42.98 25 44 25 C44 25.99 44 26.98 44 28 C45.98 28 47.96 28 50 28 C50 28.99 50 29.98 50 31 C51.98 31 53.96 31 56 31 C56 33.97 56 36.94 56 40 C55.01 40 54.02 40 53 40 C53 43.3 53 46.6 53 50 C52.01 50 51.02 50 50 50 C50 50.99 50 51.98 50 53 C49.01 53 48.02 53 47 53 C47 54.98 47 56.96 47 59 C46.01 59 45.02 59 44 59 C44 59.99 44 60.98 44 62 C43.01 62 42.02 62 41 62 C41 62.99 41 63.98 41 65 C37.7 65 34.4 65 31 65 C31 64.01 31 63.02 31 62 C29.02 62 27.04 62 25 62 C25 61.01 25 60.02 25 59 C23.02 59 21.04 59 19 59 C19 59.99 19 60.98 19 62 C19.99 62 20.98 62 22 62 C22 62.99 22 63.98 22 65 C23.98 65 25.96 65 28 65 C28 67.31 28 69.62 28 72 C27.01 72 26.02 72 25 72 C25 72.99 25 73.98 25 75 C23.02 75 21.04 75 19 75 C19 75.99 19 76.98 19 78 C17.02 78 15.04 78 13 78 C13 78.99 13 79.98 13 81 C10.69 81 8.38 81 6 81 C6 81.99 6 82.98 6 84 C4.02 84 2.04 84 0 84 C0 84.99 0 85.98 0 87 C-1.98 87 -3.96 87 -6 87 C-6 86.01 -6 85.02 -6 84 C-7.98 84 -9.96 84 -12 84 C-12 83.01 -12 82.02 -12 81 C-14.31 81 -16.62 81 -19 81 C-19 80.01 -19 79.02 -19 78 C-19.99 78 -20.98 78 -22 78 C-22 77.01 -22 76.02 -22 75 C-23.98 75 -25.96 75 -28 75 C-28 74.01 -28 73.02 -28 72 C-29.98 72 -31.96 72 -34 72 C-34 71.01 -34 70.02 -34 69 C-35.98 69 -37.96 69 -40 69 C-40 67.68 -40 66.36 -40 65 C-42.31 65 -44.62 65 -47 65 C-47 64.01 -47 63.02 -47 62 C-47.99 62 -48.98 62 -50 62 C-50 61.01 -50 60.02 -50 59 C-51.98 59 -53.96 59 -56 59 C-56 58.01 -56 57.02 -56 56 C-55.01 56 -54.02 56 -53 56 C-53 55.01 -53 54.02 -53 53 C-51.02 53 -49.04 53 -47 53 C-47 52.01 -47 51.02 -47 50 C-44.69 50 -42.38 50 -40 50 C-40 49.01 -40 48.02 -40 47 C-39.01 47 -38.02 47 -37 47 C-37 46.01 -37 45.02 -37 44 C-35.02 44 -33.04 44 -31 44 C-31 42.68 -31 41.36 -31 40 C-29.02 40 -27.04 40 -25 40 C-25 39.01 -25 38.02 -25 37 C-23.02 37 -21.04 37 -19 37 C-19 36.01 -19 35.02 -19 34 C-17.68 34 -16.36 34 -15 34 C-15 33.01 -15 32.02 -15 31 C-14.01 31 -13.02 31 -12 31 C-12 29.02 -12 27.04 -12 25 C-11.01 25 -10.02 25 -9 25 C-9 24.01 -9 23.02 -9 22 C-8.01 22 -7.02 22 -6 22 C-6 19.69 -6 17.38 -6 15 C-5.01 15 -4.02 15 -3 15 C-3 13.02 -3 11.04 -3 9 C-2.01 9 -1.02 9 0 9 C0 6.03 0 3.06 0 0 Z " fill="#D2D1D1" transform="translate(80,46)"/>
<path d="M0 0 C0.99 0 1.98 0 3 0 C3 12.21 3 24.42 3 37 C2.01 37 1.02 37 0 37 C0 38.98 0 40.96 0 43 C-0.99 43 -1.98 43 -3 43 C-3 45.31 -3 47.62 -3 50 C-3.99 50 -4.98 50 -6 50 C-6 50.99 -6 51.98 -6 53 C-6.99 53 -7.98 53 -9 53 C-9 54.98 -9 56.96 -9 59 C-9.99 59 -10.98 59 -12 59 C-12 59.99 -12 60.98 -12 62 C-13.32 62 -14.64 62 -16 62 C-16 62.99 -16 63.98 -16 65 C-17.98 65 -19.96 65 -22 65 C-22 65.99 -22 66.98 -22 68 C-23.98 68 -25.96 68 -28 68 C-28 69.32 -28 70.64 -28 72 C-29.98 72 -31.96 72 -34 72 C-34 72.99 -34 73.98 -34 75 C-34.99 75 -35.98 75 -37 75 C-37 75.99 -37 76.98 -37 78 C-39.31 78 -41.62 78 -44 78 C-44 78.99 -44 79.98 -44 81 C-45.98 81 -47.96 81 -50 81 C-50 81.99 -50 82.98 -50 84 C-51.98 84 -53.96 84 -56 84 C-56 84.99 -56 85.98 -56 87 C-56.99 87 -57.98 87 -59 87 C-59 69.51 -59 52.02 -59 34 C-57.02 34 -55.04 34 -53 34 C-53 33.01 -53 32.02 -53 31 C-52.01 31 -51.02 31 -50 31 C-50 30.01 -50 29.02 -50 28 C-48.02 28 -46.04 28 -44 28 C-44 27.01 -44 26.02 -44 25 C-41.69 25 -39.38 25 -37 25 C-37 24.01 -37 23.02 -37 22 C-36.01 22 -35.02 22 -34 22 C-34 20.68 -34 19.36 -34 18 C-32.02 18 -30.04 18 -28 18 C-28 17.01 -28 16.02 -28 15 C-27.01 15 -26.02 15 -25 15 C-25 14.01 -25 13.02 -25 12 C-23.02 12 -21.04 12 -19 12 C-19 11.01 -19 10.02 -19 9 C-16.69 9 -14.38 9 -12 9 C-12 8.01 -12 7.02 -12 6 C-10.02 6 -8.04 6 -6 6 C-6 5.01 -6 4.02 -6 3 C-4.02 3 -2.04 3 0 3 C0 2.01 0 1.02 0 0 Z " fill="#CE611D" transform="translate(77,18)"/>
<path d="M0 0 C1.98 0 3.96 0 6 0 C6 0.99 6 1.98 6 3 C6.99 3 7.98 3 9 3 C9 3.99 9 4.98 9 6 C11.31 6 13.62 6 16 6 C16 7.32 16 8.64 16 10 C17.98 10 19.96 10 22 10 C22 10.99 22 11.98 22 13 C22.99 13 23.98 13 25 13 C25 13.99 25 14.98 25 16 C26.98 16 28.96 16 31 16 C31 16.99 31 17.98 31 19 C32.98 19 34.96 19 37 19 C37 19.99 37 20.98 37 22 C39.31 22 41.62 22 44 22 C44 22.99 44 23.98 44 25 C44.99 25 45.98 25 47 25 C47 25.99 47 26.98 47 28 C48.98 28 50.96 28 53 28 C53 28.99 53 29.98 53 31 C54.98 31 56.96 31 59 31 C59 32.32 59 33.64 59 35 C61.31 35 63.62 35 66 35 C66 35.99 66 36.98 66 38 C66.99 38 67.98 38 69 38 C69 39.98 69 41.96 69 44 C64.71 44 60.42 44 56 44 C56 43.01 56 42.02 56 41 C55.01 41 54.02 41 53 41 C53 40.01 53 39.02 53 38 C51.02 38 49.04 38 47 38 C47 37.01 47 36.02 47 35 C45.02 35 43.04 35 41 35 C41 33.68 41 32.36 41 31 C38.69 31 36.38 31 34 31 C34 30.01 34 29.02 34 28 C33.01 28 32.02 28 31 28 C31 27.01 31 26.02 31 25 C29.02 25 27.04 25 25 25 C25 24.01 25 23.02 25 22 C23.02 22 21.04 22 19 22 C19 21.01 19 20.02 19 19 C16.69 19 14.38 19 12 19 C12 18.01 12 17.02 12 16 C11.01 16 10.02 16 9 16 C9 15.01 9 14.02 9 13 C7.02 13 5.04 13 3 13 C3 13.99 3 14.98 3 16 C1.02 16 -0.96 16 -3 16 C-3 16.99 -3 17.98 -3 19 C-4.98 19 -6.96 19 -9 19 C-9 19.99 -9 20.98 -9 22 C-11.31 22 -13.62 22 -16 22 C-16 22.99 -16 23.98 -16 25 C-17.98 25 -19.96 25 -22 25 C-22 25.99 -22 26.98 -22 28 C-22.99 28 -23.98 28 -25 28 C-25 28.99 -25 29.98 -25 31 C-26.98 31 -28.96 31 -31 31 C-31 32.32 -31 33.64 -31 35 C-31.99 35 -32.98 35 -34 35 C-34 35.99 -34 36.98 -34 38 C-36.31 38 -38.62 38 -41 38 C-41 38.99 -41 39.98 -41 41 C-42.98 41 -44.96 41 -47 41 C-47 41.99 -47 42.98 -47 44 C-47.99 44 -48.98 44 -50 44 C-50 44.99 -50 45.98 -50 47 C-51.98 47 -53.96 47 -56 47 C-56 64.49 -56 81.98 -56 100 C-55.01 100 -54.02 100 -53 100 C-53 100.99 -53 101.98 -53 103 C-51.02 103 -49.04 103 -47 103 C-47 103.99 -47 104.98 -47 106 C-46.01 106 -45.02 106 -44 106 C-44 107.32 -44 108.64 -44 110 C-42.02 110 -40.04 110 -38 110 C-38 110.99 -38 111.98 -38 113 C-35.69 113 -33.38 113 -31 113 C-31 113.99 -31 114.98 -31 116 C-29.02 116 -27.04 116 -25 116 C-25 116.99 -25 117.98 -25 119 C-24.01 119 -23.02 119 -22 119 C-22 119.99 -22 120.98 -22 122 C-20.02 122 -18.04 122 -16 122 C-16 122.99 -16 123.98 -16 125 C-13.69 125 -11.38 125 -9 125 C-9 125.99 -9 126.98 -9 128 C-7.02 128 -5.04 128 -3 128 C-3 128.99 -3 129.98 -3 131 C-2.01 131 -1.02 131 0 131 C0 132.32 0 133.64 0 135 C0.99 135 1.98 135 3 135 C3 136.98 3 138.96 3 141 C1.02 141 -0.96 141 -3 141 C-3 140.34 -3 139.68 -3 139 C-4.98 138.67 -6.96 138.34 -9 138 C-9 137.01 -9 136.02 -9 135 C-11.31 135 -13.62 135 -16 135 C-16 133.68 -16 132.36 -16 131 C-17.98 131 -19.96 131 -22 131 C-22 130.01 -22 129.02 -22 128 C-22.99 128 -23.98 128 -25 128 C-25 127.01 -25 126.02 -25 125 C-27.97 125 -30.94 125 -34 125 C-34 124.01 -34 123.02 -34 122 C-35.32 122 -36.64 122 -38 122 C-38 121.01 -38 120.02 -38 119 C-39.98 119 -41.96 119 -44 119 C-44 118.01 -44 117.02 -44 116 C-45.98 116 -47.96 116 -50 116 C-50 115.01 -50 114.02 -50 113 C-50.99 113 -51.98 113 -53 113 C-53 112.01 -53 111.02 -53 110 C-54.98 110 -56.96 110 -59 110 C-59 108.68 -59 107.36 -59 106 C-61.31 106 -63.62 106 -66 106 C-66 105.01 -66 104.02 -66 103 C-66.99 103 -67.98 103 -69 103 C-69 83.53 -69 64.06 -69 44 C-68.01 44 -67.02 44 -66 44 C-66 42.02 -66 40.04 -66 38 C-63.69 38 -61.38 38 -59 38 C-59 37.01 -59 36.02 -59 35 C-57.02 35 -55.04 35 -53 35 C-53 33.68 -53 32.36 -53 31 C-51.02 31 -49.04 31 -47 31 C-47 30.01 -47 29.02 -47 28 C-46.01 28 -45.02 28 -44 28 C-44 27.01 -44 26.02 -44 25 C-42.02 25 -40.04 25 -38 25 C-38 24.01 -38 23.02 -38 22 C-35.69 22 -33.38 22 -31 22 C-31 21.01 -31 20.02 -31 19 C-29.02 19 -27.04 19 -25 19 C-25 18.01 -25 17.02 -25 16 C-24.01 16 -23.02 16 -22 16 C-22 15.01 -22 14.02 -22 13 C-20.02 13 -18.04 13 -16 13 C-16 12.01 -16 11.02 -16 10 C-13.69 10 -11.38 10 -9 10 C-9 8.68 -9 7.36 -9 6 C-7.02 6 -5.04 6 -3 6 C-3 5.01 -3 4.02 -3 3 C-2.01 3 -1.02 3 0 3 C0 2.01 0 1.02 0 0 Z " fill="#DCDAD9" transform="translate(74,5)"/>
<path d="M0 0 C3.96 0 7.92 0 12 0 C12 0.99 12 1.98 12 3 C14.31 3 16.62 3 19 3 C19 3.99 19 4.98 19 6 C20.98 6 22.96 6 25 6 C25 6.99 25 7.98 25 9 C25.99 9 26.98 9 28 9 C28 10.32 28 11.64 28 13 C29.98 13 31.96 13 34 13 C34 13.99 34 14.98 34 16 C35.98 16 37.96 16 40 16 C40 16.99 40 17.98 40 19 C42.31 19 44.62 19 47 19 C47 19.99 47 20.98 47 22 C47.99 22 48.98 22 50 22 C50 22.99 50 23.98 50 25 C51.98 25 53.96 25 56 25 C56 25.99 56 26.98 56 28 C57.98 28 59.96 28 62 28 C62 28.99 62 29.98 62 31 C62.99 31 63.98 31 65 31 C65 31.99 65 32.98 65 34 C67.31 34 69.62 34 72 34 C72 35.32 72 36.64 72 38 C73.98 38 75.96 38 78 38 C78 38.99 78 39.98 78 41 C78.99 41 79.98 41 81 41 C81 58.49 81 75.98 81 94 C80.01 94 79.02 94 78 94 C78 96.97 78 99.94 78 103 C77.01 103 76.02 103 75 103 C75 103.99 75 104.98 75 106 C74.01 106 73.02 106 72 106 C72 108.31 72 110.62 72 113 C71.01 113 70.02 113 69 113 C69 113.99 69 114.98 69 116 C67.68 116 66.36 116 65 116 C65 116.99 65 117.98 65 119 C64.01 119 63.02 119 62 119 C62 119.99 62 120.98 62 122 C60.02 122 58.04 122 56 122 C56 122.99 56 123.98 56 125 C55.01 125 54.02 125 53 125 C53 125.99 53 126.98 53 128 C51.02 128 49.04 128 47 128 C47 128.99 47 129.98 47 131 C44.69 131 42.38 131 40 131 C40 131.99 40 132.98 40 134 C39.01 134 38.02 134 37 134 C37 135.32 37 136.64 37 138 C35.02 138 33.04 138 31 138 C31 138.99 31 139.98 31 141 C29.02 141 27.04 141 25 141 C25 141.99 25 142.98 25 144 C23.02 144 21.04 144 19 144 C19 144.99 19 145.98 19 147 C16.69 147 14.38 147 12 147 C12 147.99 12 148.98 12 150 C8.04 150 4.08 150 0 150 C0 149.01 0 148.02 0 147 C-1.98 147 -3.96 147 -6 147 C-6 146.01 -6 145.02 -6 144 C-8.31 144 -10.62 144 -13 144 C-13 143.01 -13 142.02 -13 141 C-14.98 141 -16.96 141 -19 141 C-19 140.01 -19 139.02 -19 138 C-19.99 138 -20.98 138 -22 138 C-22 136.68 -22 135.36 -22 134 C-23.98 134 -25.96 134 -28 134 C-28 133.01 -28 132.02 -28 131 C-30.31 131 -32.62 131 -35 131 C-35 130.01 -35 129.02 -35 128 C-36.98 128 -38.96 128 -41 128 C-41 127.01 -41 126.02 -41 125 C-41.99 125 -42.98 125 -44 125 C-44 124.01 -44 123.02 -44 122 C-45.98 122 -47.96 122 -50 122 C-50 121.01 -50 120.02 -50 119 C-51.98 119 -53.96 119 -56 119 C-56 118.01 -56 117.02 -56 116 C-58.31 116 -60.62 116 -63 116 C-63 115.01 -63 114.02 -63 113 C-64.98 113 -66.96 113 -69 113 C-69 89.24 -69 65.48 -69 41 C-68.01 41 -67.02 41 -66 41 C-66 40.01 -66 39.02 -66 38 C-64.02 38 -62.04 38 -60 38 C-60 36.68 -60 35.36 -60 34 C-57.69 34 -55.38 34 -53 34 C-53 33.01 -53 32.02 -53 31 C-52.01 31 -51.02 31 -50 31 C-50 30.01 -50 29.02 -50 28 C-48.02 28 -46.04 28 -44 28 C-44 27.01 -44 26.02 -44 25 C-42.02 25 -40.04 25 -38 25 C-38 24.01 -38 23.02 -38 22 C-37.01 22 -36.02 22 -35 22 C-35 21.01 -35 20.02 -35 19 C-32.69 19 -30.38 19 -28 19 C-28 18.01 -28 17.02 -28 16 C-26.02 16 -24.04 16 -22 16 C-22 15.01 -22 14.02 -22 13 C-20.02 13 -18.04 13 -16 13 C-16 11.68 -16 10.36 -16 9 C-15.01 9 -14.02 9 -13 9 C-13 8.01 -13 7.02 -13 6 C-10.69 6 -8.38 6 -6 6 C-6 5.01 -6 4.02 -6 3 C-4.02 3 -2.04 3 0 3 C0 2.01 0 1.02 0 0 Z M3 3 C3 3.99 3 4.98 3 6 C2.01 6 1.02 6 0 6 C0 6.99 0 7.98 0 9 C-1.98 9 -3.96 9 -6 9 C-6 10.32 -6 11.64 -6 13 C-8.31 13 -10.62 13 -13 13 C-13 13.99 -13 14.98 -13 16 C-14.98 16 -16.96 16 -19 16 C-19 16.99 -19 17.98 -19 19 C-19.99 19 -20.98 19 -22 19 C-22 19.99 -22 20.98 -22 22 C-23.98 22 -25.96 22 -28 22 C-28 22.99 -28 23.98 -28 25 C-30.31 25 -32.62 25 -35 25 C-35 25.99 -35 26.98 -35 28 C-36.98 28 -38.96 28 -41 28 C-41 28.99 -41 29.98 -41 31 C-41.99 31 -42.98 31 -44 31 C-44 31.99 -44 32.98 -44 34 C-45.98 34 -47.96 34 -50 34 C-50 35.32 -50 36.64 -50 38 C-51.98 38 -53.96 38 -56 38 C-56 38.99 -56 39.98 -56 41 C-58.31 41 -60.62 41 -63 41 C-63 42.98 -63 44.96 -63 47 C-63.99 47 -64.98 47 -66 47 C-66 66.47 -66 85.94 -66 106 C-65.01 106 -64.02 106 -63 106 C-63 106.99 -63 107.98 -63 109 C-60.69 109 -58.38 109 -56 109 C-56 110.32 -56 111.64 -56 113 C-54.02 113 -52.04 113 -50 113 C-50 113.99 -50 114.98 -50 116 C-49.01 116 -48.02 116 -47 116 C-47 116.99 -47 117.98 -47 119 C-45.02 119 -43.04 119 -41 119 C-41 119.99 -41 120.98 -41 122 C-39.02 122 -37.04 122 -35 122 C-35 122.99 -35 123.98 -35 125 C-33.68 125 -32.36 125 -31 125 C-31 125.99 -31 126.98 -31 128 C-28.03 128 -25.06 128 -22 128 C-22 128.99 -22 129.98 -22 131 C-21.01 131 -20.02 131 -19 131 C-19 131.99 -19 132.98 -19 134 C-17.02 134 -15.04 134 -13 134 C-13 135.32 -13 136.64 -13 138 C-10.69 138 -8.38 138 -6 138 C-6 138.99 -6 139.98 -6 141 C-4.02 141.33 -2.04 141.66 0 142 C0 142.66 0 143.32 0 144 C0.99 144 1.98 144 3 144 C3 144.99 3 145.98 3 147 C4.98 147 6.96 147 9 147 C9 146.01 9 145.02 9 144 C9.99 144 10.98 144 12 144 C12 143.01 12 142.02 12 141 C14.31 141 16.62 141 19 141 C19 140.01 19 139.02 19 138 C20.98 138 22.96 138 25 138 C25 136.68 25 135.36 25 134 C26.98 134 28.96 134 31 134 C31 133.01 31 132.02 31 131 C32.98 131 34.96 131 37 131 C37 130.01 37 129.02 37 128 C39.31 128 41.62 128 44 128 C44 127.01 44 126.02 44 125 C44.99 125 45.98 125 47 125 C47 124.01 47 123.02 47 122 C48.98 122 50.96 122 53 122 C53 121.01 53 120.02 53 119 C53.99 119 54.98 119 56 119 C56 118.01 56 117.02 56 116 C56.99 116 57.98 116 59 116 C59 115.01 59 114.02 59 113 C59.99 113 60.98 113 62 113 C62 111.68 62 110.36 62 109 C62.99 109 63.98 109 65 109 C65 108.01 65 107.02 65 106 C66.32 106 67.64 106 69 106 C69 105.01 69 104.02 69 103 C69.99 103 70.98 103 72 103 C72 101.02 72 99.04 72 97 C72.99 97 73.98 97 75 97 C75 92.71 75 88.42 75 84 C75.99 84 76.98 84 78 84 C78 70.8 78 57.6 78 44 C77.01 44 76.02 44 75 44 C75 43.01 75 42.02 75 41 C73.02 41 71.04 41 69 41 C69 40.01 69 39.02 69 38 C66.69 38 64.38 38 62 38 C62 36.68 62 35.36 62 34 C60.02 34 58.04 34 56 34 C56 33.01 56 32.02 56 31 C54.02 31 52.04 31 50 31 C50 30.01 50 29.02 50 28 C49.01 28 48.02 28 47 28 C47 27.01 47 26.02 47 25 C44.69 25 42.38 25 40 25 C40 24.01 40 23.02 40 22 C38.02 22 36.04 22 34 22 C34 21.01 34 20.02 34 19 C32.02 19 30.04 19 28 19 C28 18.01 28 17.02 28 16 C27.01 16 26.02 16 25 16 C25 15.01 25 14.02 25 13 C23.02 13 21.04 13 19 13 C19 11.68 19 10.36 19 9 C16.69 9 14.38 9 12 9 C12 8.01 12 7.02 12 6 C11.01 6 10.02 6 9 6 C9 5.01 9 4.02 9 3 C7.02 3 5.04 3 3 3 Z " fill="#515050" transform="translate(71,2)"/>
<path d="M0 0 C1.98 0 3.96 0 6 0 C6 0.99 6 1.98 6 3 C7.32 3 8.64 3 10 3 C10 4.32 10 5.64 10 7 C11.98 7 13.96 7 16 7 C16 7.99 16 8.98 16 10 C17.98 10 19.96 10 22 10 C22 10.99 22 11.98 22 13 C22.99 13 23.98 13 25 13 C25 13.99 25 14.98 25 16 C26.98 16 28.96 16 31 16 C31 16.99 31 17.98 31 19 C33.31 19 35.62 19 38 19 C38 19.99 38 20.98 38 22 C39.98 22 41.96 22 44 22 C44 22.99 44 23.98 44 25 C44.99 25 45.98 25 47 25 C47 25.99 47 26.98 47 28 C48.98 28 50.96 28 53 28 C53 30.31 53 32.62 53 35 C52.01 35 51.02 35 50 35 C50 35.99 50 36.98 50 38 C48.02 38 46.04 38 44 38 C44 38.99 44 39.98 44 41 C42.02 41 40.04 41 38 41 C38 41.99 38 42.98 38 44 C35.69 44 33.38 44 31 44 C31 44.99 31 45.98 31 47 C29.02 47 27.04 47 25 47 C25 47.99 25 48.98 25 50 C23.02 50 21.04 50 19 50 C19 49.01 19 48.02 19 47 C17.02 47 15.04 47 13 47 C13 46.01 13 45.02 13 44 C10.69 44 8.38 44 6 44 C6 43.01 6 42.02 6 41 C5.01 41 4.02 41 3 41 C3 40.01 3 39.02 3 38 C1.02 38 -0.96 38 -3 38 C-3 37.01 -3 36.02 -3 35 C-4.98 35 -6.96 35 -9 35 C-9 34.01 -9 33.02 -9 32 C-10.98 32 -12.96 32 -15 32 C-15 30.68 -15 29.36 -15 28 C-17.31 28 -19.62 28 -22 28 C-22 27.01 -22 26.02 -22 25 C-22.99 25 -23.98 25 -25 25 C-25 24.01 -25 23.02 -25 22 C-26.98 22 -28.96 22 -31 22 C-31 21.01 -31 20.02 -31 19 C-30.01 19 -29.02 19 -28 19 C-28 18.01 -28 17.02 -28 16 C-26.02 16 -24.04 16 -22 16 C-22 15.01 -22 14.02 -22 13 C-19.69 13 -17.38 13 -15 13 C-15 12.01 -15 11.02 -15 10 C-14.01 10 -13.02 10 -12 10 C-12 9.01 -12 8.02 -12 7 C-10.02 7 -8.04 7 -6 7 C-6 5.68 -6 4.36 -6 3 C-4.02 3 -2.04 3 0 3 C0 2.01 0 1.02 0 0 Z " fill="#EAE9E9" transform="translate(55,83)"/>
<path d="M0 0 C0.99 0 1.98 0 3 0 C3 0.99 3 1.98 3 3 C5.31 3 7.62 3 10 3 C10 3.99 10 4.98 10 6 C11.98 6 13.96 6 16 6 C16 6.99 16 7.98 16 9 C16.99 9 17.98 9 19 9 C19 9.99 19 10.98 19 12 C20.98 12 22.96 12 25 12 C25 13.32 25 14.64 25 16 C26.98 16 28.96 16 31 16 C31 16.99 31 17.98 31 19 C33.31 19 35.62 19 38 19 C38 19.99 38 20.98 38 22 C38.99 22 39.98 22 41 22 C41 22.99 41 23.98 41 25 C42.98 25 44.96 25 47 25 C47 25.99 47 26.98 47 28 C48.98 28 50.96 28 53 28 C53 28.99 53 29.98 53 31 C53.99 31 54.98 31 56 31 C56 37.27 56 43.54 56 50 C55.01 50 54.02 50 53 50 C53 49.01 53 48.02 53 47 C51.02 47 49.04 47 47 47 C47 46.01 47 45.02 47 44 C46.01 44 45.02 44 44 44 C44 43.01 44 42.02 44 41 C42.02 41 40.04 41 38 41 C38 39.68 38 38.36 38 37 C35.69 37 33.38 37 31 37 C31 36.01 31 35.02 31 34 C30.01 34 29.02 34 28 34 C28 33.01 28 32.02 28 31 C26.02 31 24.04 31 22 31 C22 30.01 22 29.02 22 28 C20.02 28 18.04 28 16 28 C16 27.01 16 26.02 16 25 C14.02 25 12.04 25 10 25 C10 24.01 10 23.02 10 22 C8.68 22 7.36 22 6 22 C6 21.01 6 20.02 6 19 C4.02 19 2.04 19 0 19 C0 12.73 0 6.46 0 0 Z " fill="#B0AFAF" transform="translate(80,24)"/>
<path d="M0 0 C2.31 0 4.62 0 7 0 C7 1.32 7 2.64 7 4 C8.98 4 10.96 4 13 4 C13 4.99 13 5.98 13 7 C13.99 7 14.98 7 16 7 C16 24.49 16 41.98 16 60 C15.01 60 14.02 60 13 60 C13 62.97 13 65.94 13 69 C12.01 69 11.02 69 10 69 C10 69.99 10 70.98 10 72 C9.01 72 8.02 72 7 72 C7 74.31 7 76.62 7 79 C6.01 79 5.02 79 4 79 C4 79.99 4 80.98 4 82 C2.68 82 1.36 82 0 82 C0 82.99 0 83.98 0 85 C-0.99 85 -1.98 85 -3 85 C-3 85.99 -3 86.98 -3 88 C-4.98 88 -6.96 88 -9 88 C-9 88.99 -9 89.98 -9 91 C-9.99 91 -10.98 91 -12 91 C-12 91.99 -12 92.98 -12 94 C-13.98 94 -15.96 94 -18 94 C-18 94.99 -18 95.98 -18 97 C-20.31 97 -22.62 97 -25 97 C-25 97.99 -25 98.98 -25 100 C-25.99 100 -26.98 100 -28 100 C-28 101.32 -28 102.64 -28 104 C-29.98 104 -31.96 104 -34 104 C-34 104.99 -34 105.98 -34 107 C-35.98 107 -37.96 107 -40 107 C-40 107.99 -40 108.98 -40 110 C-41.98 110 -43.96 110 -46 110 C-46 110.99 -46 111.98 -46 113 C-48.31 113 -50.62 113 -53 113 C-53 113.99 -53 114.98 -53 116 C-56.96 116 -60.92 116 -65 116 C-65 115.01 -65 114.02 -65 113 C-66.98 113 -68.96 113 -71 113 C-71 112.01 -71 111.02 -71 110 C-72.32 110 -73.64 110 -75 110 C-75 109.01 -75 108.02 -75 107 C-71.37 107 -67.74 107 -64 107 C-64.33 107.99 -64.66 108.98 -65 110 C-64.01 110 -63.02 110 -62 110 C-62 110.99 -62 111.98 -62 113 C-60.02 113 -58.04 113 -56 113 C-56 112.01 -56 111.02 -56 110 C-55.01 110 -54.02 110 -53 110 C-53 109.01 -53 108.02 -53 107 C-50.69 107 -48.38 107 -46 107 C-46 106.01 -46 105.02 -46 104 C-44.02 104 -42.04 104 -40 104 C-40 102.68 -40 101.36 -40 100 C-38.02 100 -36.04 100 -34 100 C-34 99.01 -34 98.02 -34 97 C-32.02 97 -30.04 97 -28 97 C-28 96.01 -28 95.02 -28 94 C-25.69 94 -23.38 94 -21 94 C-21 93.01 -21 92.02 -21 91 C-20.01 91 -19.02 91 -18 91 C-18 90.01 -18 89.02 -18 88 C-16.02 88 -14.04 88 -12 88 C-12 87.01 -12 86.02 -12 85 C-11.01 85 -10.02 85 -9 85 C-9 84.01 -9 83.02 -9 82 C-8.01 82 -7.02 82 -6 82 C-6 81.01 -6 80.02 -6 79 C-5.01 79 -4.02 79 -3 79 C-3 77.68 -3 76.36 -3 75 C-2.01 75 -1.02 75 0 75 C0 74.01 0 73.02 0 72 C1.32 72 2.64 72 4 72 C4 71.01 4 70.02 4 69 C4.99 69 5.98 69 7 69 C7 67.02 7 65.04 7 63 C7.99 63 8.98 63 10 63 C10 58.71 10 54.42 10 50 C10.99 50 11.98 50 13 50 C13 36.8 13 23.6 13 10 C12.01 10 11.02 10 10 10 C10 9.01 10 8.02 10 7 C8.02 7 6.04 7 4 7 C4 6.01 4 5.02 4 4 C2.68 4 1.36 4 0 4 C0 2.68 0 1.36 0 0 Z " fill="#3C3C3C" transform="translate(136,36)"/>
<path d="M0 0 C0.99 0 1.98 0 3 0 C3 0.99 3 1.98 3 3 C3.99 3 4.98 3 6 3 C6 3.99 6 4.98 6 6 C8.31 6 10.62 6 13 6 C13 6.99 13 7.98 13 9 C14.98 9 16.96 9 19 9 C19 9.99 19 10.98 19 12 C20.98 12 22.96 12 25 12 C25 12.99 25 13.98 25 15 C25.99 15 26.98 15 28 15 C28 15.99 28 16.98 28 18 C30.31 18 32.62 18 35 18 C35 19.32 35 20.64 35 22 C36.98 22 38.96 22 41 22 C41 22.99 41 23.98 41 25 C42.98 25 44.96 25 47 25 C47 25.99 47 26.98 47 28 C47.99 28 48.98 28 50 28 C50 28.99 50 29.98 50 31 C54.29 31 58.58 31 63 31 C63 29.02 63 27.04 63 25 C63.99 25 64.98 25 66 25 C66 25.99 66 26.98 66 28 C66.99 28 67.98 28 69 28 C69 28.99 69 29.98 69 31 C68.01 31 67.02 31 66 31 C66 31.99 66 32.98 66 34 C64.02 34 62.04 34 60 34 C60 44.23 60 54.46 60 65 C58.68 65 57.36 65 56 65 C56 63.02 56 61.04 56 59 C54.02 59 52.04 59 50 59 C50 58.01 50 57.02 50 56 C48.02 56 46.04 56 44 56 C44 55.01 44 54.02 44 53 C43.01 53 42.02 53 41 53 C41 52.01 41 51.02 41 50 C39.02 50 37.04 50 35 50 C35 49.01 35 48.02 35 47 C32.69 47 30.38 47 28 47 C28 45.68 28 44.36 28 43 C26.02 43 24.04 43 22 43 C22 42.01 22 41.02 22 40 C21.01 40 20.02 40 19 40 C19 39.01 19 38.02 19 37 C17.02 37 15.04 37 13 37 C13 36.01 13 35.02 13 34 C10.69 34 8.38 34 6 34 C6 33.01 6 32.02 6 31 C5.01 31 4.02 31 3 31 C3 30.01 3 29.02 3 28 C2.01 28 1.02 28 0 28 C0 27.01 0 26.02 0 25 C1.98 25 3.96 25 6 25 C6 25.99 6 26.98 6 28 C7.32 28 8.64 28 10 28 C10 28.99 10 29.98 10 31 C11.98 31 13.96 31 16 31 C16 31.99 16 32.98 16 34 C17.98 34 19.96 34 22 34 C22 34.99 22 35.98 22 37 C23.98 37 25.96 37 28 37 C28 37.99 28 38.98 28 40 C28.99 40 29.98 40 31 40 C31 40.99 31 41.98 31 43 C33.31 43 35.62 43 38 43 C38 44.32 38 45.64 38 47 C39.98 47 41.96 47 44 47 C44 47.99 44 48.98 44 50 C44.99 50 45.98 50 47 50 C47 50.99 47 51.98 47 53 C48.98 53 50.96 53 53 53 C53 53.99 53 54.98 53 56 C53.99 56 54.98 56 56 56 C56 49.73 56 43.46 56 37 C55.01 37 54.02 37 53 37 C53 36.01 53 35.02 53 34 C51.02 34 49.04 34 47 34 C47 33.01 47 32.02 47 31 C45.02 31 43.04 31 41 31 C41 30.01 41 29.02 41 28 C40.01 28 39.02 28 38 28 C38 27.01 38 26.02 38 25 C35.69 25 33.38 25 31 25 C31 24.01 31 23.02 31 22 C29.02 22 27.04 22 25 22 C25 20.68 25 19.36 25 18 C23.02 18 21.04 18 19 18 C19 17.01 19 16.02 19 15 C18.01 15 17.02 15 16 15 C16 14.01 16 13.02 16 12 C14.02 12 12.04 12 10 12 C10 11.01 10 10.02 10 9 C7.69 9 5.38 9 3 9 C3 8.01 3 7.02 3 6 C2.01 6 1.02 6 0 6 C0 4.02 0 2.04 0 0 Z " fill="#868585" transform="translate(80,18)"/>
<path d="M0 0 C1.98 0 3.96 0 6 0 C6 0.99 6 1.98 6 3 C5.01 3 4.02 3 3 3 C3 4.98 3 6.96 3 9 C2.01 9 1.02 9 0 9 C0 28.47 0 47.94 0 68 C0.99 68 1.98 68 3 68 C3 68.99 3 69.98 3 71 C5.31 71 7.62 71 10 71 C10 72.32 10 73.64 10 75 C11.98 75 13.96 75 16 75 C16 75.99 16 76.98 16 78 C16.99 78 17.98 78 19 78 C19 78.99 19 79.98 19 81 C20.98 81 22.96 81 25 81 C25 81.99 25 82.98 25 84 C26.98 84 28.96 84 31 84 C31 84.99 31 85.98 31 87 C32.32 87 33.64 87 35 87 C35 87.99 35 88.98 35 90 C37.97 90 40.94 90 44 90 C44 90.99 44 91.98 44 93 C44.99 93 45.98 93 47 93 C47 93.99 47 94.98 47 96 C48.98 96 50.96 96 53 96 C53 97.32 53 98.64 53 100 C55.31 100 57.62 100 60 100 C60 100.99 60 101.98 60 103 C58.68 103 57.36 103 56 103 C56 103.99 56 104.98 56 106 C55.01 106 54.02 106 53 106 C53 105.01 53 104.02 53 103 C51.02 103 49.04 103 47 103 C47 102.01 47 101.02 47 100 C46.01 100 45.02 100 44 100 C44 98.68 44 97.36 44 96 C42.02 96 40.04 96 38 96 C38 95.01 38 94.02 38 93 C35.69 93 33.38 93 31 93 C31 92.01 31 91.02 31 90 C29.02 90 27.04 90 25 90 C25 89.01 25 88.02 25 87 C24.01 87 23.02 87 22 87 C22 86.01 22 85.02 22 84 C20.02 84 18.04 84 16 84 C16 83.01 16 82.02 16 81 C14.02 81 12.04 81 10 81 C10 80.01 10 79.02 10 78 C7.69 78 5.38 78 3 78 C3 77.01 3 76.02 3 75 C1.02 75 -0.96 75 -3 75 C-3 51.24 -3 27.48 -3 3 C-2.01 3 -1.02 3 0 3 C0 2.01 0 1.02 0 0 Z " fill="#4F4E4E" transform="translate(5,40)"/>
<path d="M0 0 C0.99 0 1.98 0 3 0 C3 0.99 3 1.98 3 3 C4.98 3 6.96 3 9 3 C9 3.99 9 4.98 9 6 C9.99 6 10.98 6 12 6 C12 6.99 12 7.98 12 9 C14.31 9 16.62 9 19 9 C19 10.32 19 11.64 19 13 C20.98 13 22.96 13 25 13 C25 13.99 25 14.98 25 16 C26.98 16 28.96 16 31 16 C31 16.99 31 17.98 31 19 C32.98 19 34.96 19 37 19 C37 19.99 37 20.98 37 22 C37.99 22 38.98 22 40 22 C40 22.99 40 23.98 40 25 C42.31 25 44.62 25 47 25 C47 25.99 47 26.98 47 28 C48.98 28 50.96 28 53 28 C53 28.99 53 29.98 53 31 C54.98 31 56.96 31 59 31 C59 30.01 59 29.02 59 28 C60.98 28 62.96 28 65 28 C65 27.01 65 26.02 65 25 C67.31 25 69.62 25 72 25 C72 24.01 72 23.02 72 22 C73.98 22 75.96 22 78 22 C78 21.01 78 20.02 78 19 C79.98 19 81.96 19 84 19 C84 18.01 84 17.02 84 16 C84.99 16 85.98 16 87 16 C87 13.69 87 11.38 87 9 C85.02 9 83.04 9 81 9 C81 8.01 81 7.02 81 6 C80.01 6 79.02 6 78 6 C78 5.01 78 4.02 78 3 C79.98 3 81.96 3 84 3 C84 3.99 84 4.98 84 6 C85.98 6 87.96 6 90 6 C90 6.99 90 7.98 90 9 C93.3 9 96.6 9 100 9 C100 8.01 100 7.02 100 6 C100.99 6 101.98 6 103 6 C103 5.01 103 4.02 103 3 C103.99 3 104.98 3 106 3 C106 4.98 106 6.96 106 9 C105.01 9 104.02 9 103 9 C103 10.32 103 11.64 103 13 C101.02 13 99.04 13 97 13 C97 13.99 97 14.98 97 16 C94.69 16 92.38 16 90 16 C90 16.99 90 17.98 90 19 C89.01 19 88.02 19 87 19 C87 19.99 87 20.98 87 22 C85.02 22 83.04 22 81 22 C81 22.99 81 23.98 81 25 C80.195625 25.12375 79.39125 25.2475 78.5625 25.375 C77.716875 25.58125 76.87125 25.7875 76 26 C75.67 26.66 75.34 27.32 75 28 C73.33333333 28.33333333 71.66666667 28.66666667 70 29 C69.67 29.66 69.34 30.32 69 31 C67 31.33333333 65 31.66666667 63 32 C62.505 32.99 62.505 32.99 62 34 C57.70894191 35.09771253 54.30788144 34.92311745 50 34 C50 33.01 50 32.02 50 31 C48.02 31 46.04 31 44 31 C44 30.01 44 29.02 44 28 C41.69 28 39.38 28 37 28 C37 27.01 37 26.02 37 25 C35.02 25 33.04 25 31 25 C31 24.01 31 23.02 31 22 C30.01 22 29.02 22 28 22 C28 21.01 28 20.02 28 19 C26.02 19 24.04 19 22 19 C22 18.01 22 17.02 22 16 C19.69 16 17.38 16 15 16 C15 15.01 15 14.02 15 13 C13.02 13 11.04 13 9 13 C9 11.68 9 10.36 9 9 C8.01 9 7.02 9 6 9 C6 8.01 6 7.02 6 6 C4.02 6 2.04 6 0 6 C0 4.02 0 2.04 0 0 Z " fill="#7C7C7C" transform="translate(21,102)"/>
<path d="M0 0 C0.99 0 1.98 0 3 0 C3 0.99 3 1.98 3 3 C4.98 3 6.96 3 9 3 C9 3.99 9 4.98 9 6 C9.99 6 10.98 6 12 6 C12 6.99 12 7.98 12 9 C14.31 9 16.62 9 19 9 C19 10.32 19 11.64 19 13 C20.98 13 22.96 13 25 13 C25 13.99 25 14.98 25 16 C26.98 16 28.96 16 31 16 C31 16.99 31 17.98 31 19 C32.98 19 34.96 19 37 19 C37 19.99 37 20.98 37 22 C37.99 22 38.98 22 40 22 C40 22.99 40 23.98 40 25 C42.31 25 44.62 25 47 25 C47 25.99 47 26.98 47 28 C48.98 28 50.96 28 53 28 C53 29.98 53 31.96 53 34 C52.01 34 51.02 34 50 34 C50 33.01 50 32.02 50 31 C48.02 31 46.04 31 44 31 C44 30.01 44 29.02 44 28 C41.69 28 39.38 28 37 28 C37 27.01 37 26.02 37 25 C35.02 25 33.04 25 31 25 C31 24.01 31 23.02 31 22 C30.01 22 29.02 22 28 22 C28 21.01 28 20.02 28 19 C26.02 19 24.04 19 22 19 C22 18.01 22 17.02 22 16 C19.69 16 17.38 16 15 16 C15 15.01 15 14.02 15 13 C13.02 13 11.04 13 9 13 C9 11.68 9 10.36 9 9 C8.01 9 7.02 9 6 9 C6 8.01 6 7.02 6 6 C4.02 6 2.04 6 0 6 C0 4.02 0 2.04 0 0 Z " fill="#959595" transform="translate(21,102)"/>
<path d="M0 0 C1.98 0 3.96 0 6 0 C6 0.99 6 1.98 6 3 C7.32 3 8.64 3 10 3 C10 3.99 10 4.98 10 6 C11.98 6 13.96 6 16 6 C16 6.99 16 7.98 16 9 C17.98 9 19.96 9 22 9 C22 9.99 22 10.98 22 12 C23.98 12 25.96 12 28 12 C28 12.99 28 13.98 28 15 C28.99 15 29.98 15 31 15 C31 15.99 31 16.98 31 18 C33.31 18 35.62 18 38 18 C38 19.32 38 20.64 38 22 C39.98 22 41.96 22 44 22 C44 22.99 44 23.98 44 25 C44.99 25 45.98 25 47 25 C47 25.99 47 26.98 47 28 C48.98 28 50.96 28 53 28 C53 29.98 53 31.96 53 34 C52.01 34 51.02 34 50 34 C50 33.01 50 32.02 50 31 C48.02 31 46.04 31 44 31 C44 30.01 44 29.02 44 28 C43.01 28 42.02 28 41 28 C41 27.01 41 26.02 41 25 C39.02 25 37.04 25 35 25 C35 24.01 35 23.02 35 22 C32.69 22 30.38 22 28 22 C28 20.68 28 19.36 28 18 C26.02 18 24.04 18 22 18 C22 17.01 22 16.02 22 15 C21.01 15 20.02 15 19 15 C19 14.01 19 13.02 19 12 C17.02 12 15.04 12 13 12 C13 11.01 13 10.02 13 9 C10.69 9 8.38 9 6 9 C6 8.01 6 7.02 6 6 C5.01 6 4.02 6 3 6 C3 5.01 3 4.02 3 3 C2.01 3 1.02 3 0 3 C0 2.01 0 1.02 0 0 Z " fill="#868686" transform="translate(80,43)"/>
<path d="M0 0 C2.97 0 5.94 0 9 0 C9 0.99 9 1.98 9 3 C10.98 3 12.96 3 15 3 C15 3.99 15 4.98 15 6 C16.98 6 18.96 6 21 6 C21 6.99 21 7.98 21 9 C22.32 9 23.64 9 25 9 C25 9.99 25 10.98 25 12 C27.97 12 30.94 12 34 12 C34 12.99 34 13.98 34 15 C34.99 15 35.98 15 37 15 C37 15.99 37 16.98 37 18 C38.98 18 40.96 18 43 18 C43 19.32 43 20.64 43 22 C45.31 22 47.62 22 50 22 C50 22.99 50 23.98 50 25 C48.68 25 47.36 25 46 25 C46 25.99 46 26.98 46 28 C45.01 28 44.02 28 43 28 C43 27.01 43 26.02 43 25 C41.02 25 39.04 25 37 25 C37 24.01 37 23.02 37 22 C36.01 22 35.02 22 34 22 C34 20.68 34 19.36 34 18 C32.02 18 30.04 18 28 18 C28 17.01 28 16.02 28 15 C25.69 15 23.38 15 21 15 C21 14.01 21 13.02 21 12 C19.02 12 17.04 12 15 12 C15 11.01 15 10.02 15 9 C14.01 9 13.02 9 12 9 C12 8.01 12 7.02 12 6 C10.02 6 8.04 6 6 6 C6 5.01 6 4.02 6 3 C4.02 3 2.04 3 0 3 C0 2.01 0 1.02 0 0 Z " fill="#484848" transform="translate(15,118)"/>
<path d="M0 0 C1.98 0 3.96 0 6 0 C6 0.99 6 1.98 6 3 C5.01 3 4.02 3 3 3 C3 17.52 3 32.04 3 47 C3.99 47 4.98 47 6 47 C6 47.99 6 48.98 6 50 C5.01 50 4.02 50 3 50 C3 50.99 3 51.98 3 53 C2.01 53 1.02 53 0 53 C0 35.51 0 18.02 0 0 Z " fill="#D46519" transform="translate(18,52)"/>
<path d="M0 0 C1.98 0 3.96 0 6 0 C6 0.99 6 1.98 6 3 C5.01 3 4.02 3 3 3 C3 3.99 3 4.98 3 6 C1.02 6 -0.96 6 -3 6 C-3 6.99 -3 7.98 -3 9 C-3.804375 9.12375 -4.60875 9.2475 -5.4375 9.375 C-6.283125 9.58125 -7.12875 9.7875 -8 10 C-8.33 10.66 -8.66 11.32 -9 12 C-10.66666667 12.33333333 -12.33333333 12.66666667 -14 13 C-14.33 13.66 -14.66 14.32 -15 15 C-17 15.33333333 -19 15.66666667 -21 16 C-21.33 16.66 -21.66 17.32 -22 18 C-25.55692677 18.85056945 -27.49270578 19.16909807 -31 18 C-31 17.01 -31 16.02 -31 15 C-29.02 15 -27.04 15 -25 15 C-25 14.01 -25 13.02 -25 12 C-23.02 12 -21.04 12 -19 12 C-19 11.01 -19 10.02 -19 9 C-16.69 9 -14.38 9 -12 9 C-12 8.01 -12 7.02 -12 6 C-10.02 6 -8.04 6 -6 6 C-6 5.01 -6 4.02 -6 3 C-4.02 3 -2.04 3 0 3 C0 2.01 0 1.02 0 0 Z " fill="#7D7D7D" transform="translate(105,118)"/>
<path d="M0 0 C1.32 0 2.64 0 4 0 C4 10.23 4 20.46 4 31 C2.68 31 1.36 31 0 31 C0 29.02 0 27.04 0 25 C-0.99 25 -1.98 25 -3 25 C-3 24.01 -3 23.02 -3 22 C-2.01 22 -1.02 22 0 22 C0 14.74 0 7.48 0 0 Z " fill="#6F6F6F" transform="translate(136,52)"/>
<path d="M0 0 C1.98 0 3.96 0 6 0 C6 0.99 6 1.98 6 3 C8.31 3 10.62 3 13 3 C13 3.99 13 4.98 13 6 C14.98 6 16.96 6 19 6 C19 6.99 19 7.98 19 9 C19.99 9 20.98 9 22 9 C22 9.99 22 10.98 22 12 C20.02 12 18.04 12 16 12 C16 11.01 16 10.02 16 9 C13.69 9 11.38 9 9 9 C9 8.01 9 7.02 9 6 C7.02 6 5.04 6 3 6 C3 5.01 3 4.02 3 3 C2.01 3 1.02 3 0 3 C0 2.01 0 1.02 0 0 Z " fill="#919191" transform="translate(77,93)"/>
<path d="M0 0 C1.98 0 3.96 0 6 0 C6 0.99 6 1.98 6 3 C8.31 3 10.62 3 13 3 C13 3.99 13 4.98 13 6 C14.98 6 16.96 6 19 6 C19 7.98 19 9.96 19 12 C18.01 12 17.02 12 16 12 C16 11.01 16 10.02 16 9 C14.02 9 12.04 9 10 9 C10 8.01 10 7.02 10 6 C7.69 6 5.38 6 3 6 C3 5.01 3 4.02 3 3 C2.01 3 1.02 3 0 3 C0 2.01 0 1.02 0 0 Z " fill="#878787" transform="translate(55,124)"/>
<path d="M0 0 C2.97 0 5.94 0 9 0 C9 0.99 9 1.98 9 3 C8.01 3 7.02 3 6 3 C6 3.99 6 4.98 6 6 C4.02 6 2.04 6 0 6 C0 7.32 0 8.64 0 10 C-1.32 10 -2.64 10 -4 10 C-4 8.68 -4 7.36 -4 6 C-4.99 6 -5.98 6 -7 6 C-7 5.01 -7 4.02 -7 3 C-4.69 3 -2.38 3 0 3 C0 2.01 0 1.02 0 0 Z " fill="#5A5A5A" transform="translate(65,5)"/>
<path d="M0 0 C2.31 0 4.62 0 7 0 C7 0.99 7 1.98 7 3 C8.98 3 10.96 3 13 3 C13 4.32 13 5.64 13 7 C13.99 7 14.98 7 16 7 C16 7.99 16 8.98 16 10 C14.02 10 12.04 10 10 10 C10 9.01 10 8.02 10 7 C8.02 7 6.04 7 4 7 C4 5.68 4 4.36 4 3 C2.68 3 1.36 3 0 3 C0 2.01 0 1.02 0 0 Z " fill="#8D8D8D" transform="translate(61,83)"/>
<path d="M0 0 C0.99 0 1.98 0 3 0 C3 0.99 3 1.98 3 3 C3.99 3 4.98 3 6 3 C6 3.99 6 4.98 6 6 C5.01 6 4.02 6 3 6 C3 6.99 3 7.98 3 9 C-0.3 9 -3.6 9 -7 9 C-7 9.99 -7 10.98 -7 12 C-7.99 12 -8.98 12 -10 12 C-10 10.02 -10 8.04 -10 6 C-6.7 6 -3.4 6 0 6 C0 4.02 0 2.04 0 0 Z " fill="#888888" transform="translate(143,43)"/>
<path d="M0 0 C3.96 0 7.92 0 12 0 C12 0.99 12 1.98 12 3 C12.99 3 13.98 3 15 3 C15 5.31 15 7.62 15 10 C14.01 10 13.02 10 12 10 C12 8.68 12 7.36 12 6 C10.02 6 8.04 6 6 6 C6 5.01 6 4.02 6 3 C4.02 3 2.04 3 0 3 C0 2.01 0 1.02 0 0 Z " fill="#4F4F4F" transform="translate(121,30)"/>
<path d="M0 0 C1.98 0 3.96 0 6 0 C6 0.99 6 1.98 6 3 C7.98 3 9.96 3 12 3 C12 6.3 12 9.6 12 13 C11.01 13 10.02 13 9 13 C9 10.69 9 8.38 9 6 C7.02 6 5.04 6 3 6 C3 5.01 3 4.02 3 3 C2.01 3 1.02 3 0 3 C0 2.01 0 1.02 0 0 Z " fill="#8A8A8A" transform="translate(99,105)"/>
<path d="M0 0 C0.99 0 1.98 0 3 0 C3 1.98 3 3.96 3 6 C4.32 6 5.64 6 7 6 C7 6.99 7 7.98 7 9 C7.99 9 8.98 9 10 9 C10 9.99 10 10.98 10 12 C7.69 12 5.38 12 3 12 C3 11.01 3 10.02 3 9 C2.01 9 1.02 9 0 9 C0 6.03 0 3.06 0 0 Z " fill="#828282" transform="translate(8,43)"/>
<path d="M0 0 C1.98 0 3.96 0 6 0 C6 1.32 6 2.64 6 4 C5.01 4 4.02 4 3 4 C3 4.99 3 5.98 3 7 C1.02 7 -0.96 7 -3 7 C-3 7.99 -3 8.98 -3 10 C-3.99 10 -4.98 10 -6 10 C-6 8.02 -6 6.04 -6 4 C-4.02 4 -2.04 4 0 4 C0 2.68 0 1.36 0 0 Z " fill="#525050" transform="translate(55,11)"/>
<path d="M0 0 C1.32 0 2.64 0 4 0 C4 2.31 4 4.62 4 7 C2.68 7 1.36 7 0 7 C0 8.98 0 10.96 0 13 C-0.99 13 -1.98 13 -3 13 C-3 9.7 -3 6.4 -3 3 C-2.01 3 -1.02 3 0 3 C0 2.01 0 1.02 0 0 Z " fill="#878787" transform="translate(136,83)"/>
<path d="M0 0 C1.98 0 3.96 0 6 0 C6 1.98 6 3.96 6 6 C4.02 6 2.04 6 0 6 C0 6.99 0 7.98 0 9 C-0.99 9 -1.98 9 -3 9 C-3 7.02 -3 5.04 -3 3 C-2.01 3 -1.02 3 0 3 C0 2.01 0 1.02 0 0 Z " fill="#5B5A5A" transform="translate(43,18)"/>
<path d="M0 0 C0.99 0 1.98 0 3 0 C3 0.99 3 1.98 3 3 C4.98 3 6.96 3 9 3 C9 3.99 9 4.98 9 6 C8.01 6 7.02 6 6 6 C6 6.99 6 7.98 6 9 C5.01 9 4.02 9 3 9 C3 8.01 3 7.02 3 6 C2.01 6 1.02 6 0 6 C0 4.02 0 2.04 0 0 Z " fill="#9C9C9C" transform="translate(49,118)"/>
<path d="M0 0 C0.99 0 1.98 0 3 0 C3 0.99 3 1.98 3 3 C4.98 3 6.96 3 9 3 C9 3.99 9 4.98 9 6 C8.01 6 7.02 6 6 6 C6 6.99 6 7.98 6 9 C5.01 9 4.02 9 3 9 C3 8.01 3 7.02 3 6 C2.01 6 1.02 6 0 6 C0 4.02 0 2.04 0 0 Z " fill="#909090" transform="translate(99,52)"/>
<path d="M0 0 C0.99 0 1.98 0 3 0 C3 0.99 3 1.98 3 3 C4.98 3 6.96 3 9 3 C9 3.99 9 4.98 9 6 C8.01 6 7.02 6 6 6 C6 6.99 6 7.98 6 9 C5.01 9 4.02 9 3 9 C3 8.01 3 7.02 3 6 C2.01 6 1.02 6 0 6 C0 4.02 0 2.04 0 0 Z " fill="#909090" transform="translate(96,27)"/>
<path d="M0 0 C3.96 0 7.92 0 12 0 C12 1.98 12 3.96 12 6 C11.01 6 10.02 6 9 6 C9 5.01 9 4.02 9 3 C6.03 3 3.06 3 0 3 C0 2.01 0 1.02 0 0 Z " fill="#4A4949" transform="translate(71,2)"/>
<path d="M0 0 C1.98 0 3.96 0 6 0 C6 0.99 6 1.98 6 3 C6.99 3 7.98 3 9 3 C9 4.32 9 5.64 9 7 C7.02 7 5.04 7 3 7 C3 5.68 3 4.36 3 3 C2.01 3 1.02 3 0 3 C0 2.01 0 1.02 0 0 Z " fill="#818080" transform="translate(102,33)"/>
<path d="M0 0 C3.3 0 6.6 0 10 0 C10 0.99 10 1.98 10 3 C8.68 3 7.36 3 6 3 C6 3.99 6 4.98 6 6 C5.01 6 4.02 6 3 6 C3 5.01 3 4.02 3 3 C2.01 3 1.02 3 0 3 C0 2.01 0 1.02 0 0 Z " fill="#494949" transform="translate(55,140)"/>
<path d="M0 0 C1.98 0 3.96 0 6 0 C6 0.99 6 1.98 6 3 C7.32 3 8.64 3 10 3 C10 3.99 10 4.98 10 6 C7.69 6 5.38 6 3 6 C3 5.01 3 4.02 3 3 C2.01 3 1.02 3 0 3 C0 2.01 0 1.02 0 0 Z " fill="#868686" transform="translate(55,124)"/>
<path d="M0 0 C1.98 0 3.96 0 6 0 C6 0.99 6 1.98 6 3 C6.99 3 7.98 3 9 3 C9 3.99 9 4.98 9 6 C7.02 6 5.04 6 3 6 C3 5.01 3 4.02 3 3 C2.01 3 1.02 3 0 3 C0 2.01 0 1.02 0 0 Z " fill="#858585" transform="translate(40,115)"/>
<path d="M0 0 C0.99 0 1.98 0 3 0 C3 1.98 3 3.96 3 6 C2.01 6 1.02 6 0 6 C0 6.99 0 7.98 0 9 C-0.99 9 -1.98 9 -3 9 C-3 7.02 -3 5.04 -3 3 C-2.01 3 -1.02 3 0 3 C0 2.01 0 1.02 0 0 Z " fill="#7F7F7F" transform="translate(130,96)"/>
<path d="M0 0 C1.98 0 3.96 0 6 0 C6 0.99 6 1.98 6 3 C6.99 3 7.98 3 9 3 C9 3.99 9 4.98 9 6 C7.02 6 5.04 6 3 6 C3 5.01 3 4.02 3 3 C2.01 3 1.02 3 0 3 C0 2.01 0 1.02 0 0 Z " fill="#898989" transform="translate(77,93)"/>
<path d="M0 0 C1.98 0 3.96 0 6 0 C6 0.99 6 1.98 6 3 C6.99 3 7.98 3 9 3 C9 3.99 9 4.98 9 6 C7.02 6 5.04 6 3 6 C3 5.01 3 4.02 3 3 C2.01 3 1.02 3 0 3 C0 2.01 0 1.02 0 0 Z " fill="#808080" transform="translate(90,49)"/>
<path d="M0 0 C1.98 0 3.96 0 6 0 C6 0.99 6 1.98 6 3 C5.01 3 4.02 3 3 3 C3 3.99 3 4.98 3 6 C1.02 6 -0.96 6 -3 6 C-3 5.01 -3 4.02 -3 3 C-2.01 3 -1.02 3 0 3 C0 2.01 0 1.02 0 0 Z " fill="#E06F11" transform="translate(27,46)"/>
<path d="M0 0 C1.98 0 3.96 0 6 0 C6 0.99 6 1.98 6 3 C6.99 3 7.98 3 9 3 C9 3.99 9 4.98 9 6 C7.02 6 5.04 6 3 6 C3 5.01 3 4.02 3 3 C2.01 3 1.02 3 0 3 C0 2.01 0 1.02 0 0 Z " fill="#7E7E7E" transform="translate(124,46)"/>
<path d="M0 0 C2.97 0 5.94 0 9 0 C9 0.99 9 1.98 9 3 C8.01 3 7.02 3 6 3 C6 3.99 6 4.98 6 6 C5.01 6 4.02 6 3 6 C3 5.01 3 4.02 3 3 C2.01 3 1.02 3 0 3 C0 2.01 0 1.02 0 0 Z " fill="#5F5E5E" transform="translate(21,30)"/>
<path d="M0 0 C0.99 0 1.98 0 3 0 C3 0.99 3 1.98 3 3 C3.99 3 4.98 3 6 3 C6 4.98 6 6.96 6 9 C5.01 9 4.02 9 3 9 C3 8.01 3 7.02 3 6 C2.01 6 1.02 6 0 6 C0 4.02 0 2.04 0 0 Z " fill="#8D8D8D" transform="translate(80,18)"/>
<path d="M0 0 C0.99 0 1.98 0 3 0 C3 3.3 3 6.6 3 10 C2.01 10 1.02 10 0 10 C0 6.7 0 3.4 0 0 Z " fill="#A0A0A0" transform="translate(108,108)"/>
<path d="M0 0 C2.31 0 4.62 0 7 0 C7 0.99 7 1.98 7 3 C5.68 3 4.36 3 3 3 C3 3.99 3 4.98 3 6 C2.01 6 1.02 6 0 6 C0 4.02 0 2.04 0 0 Z " fill="#989898" transform="translate(133,49)"/>
<path d="M0 0 C0.99 0 1.98 0 3 0 C3 3 3 3 1.875 4.6875 C-0.76459098 6.53521368 -2.85804073 6.20946395 -6 6 C-6 5.01 -6 4.02 -6 3 C-4.02 3 -2.04 3 0 3 C0 2.01 0 1.02 0 0 Z " fill="#E19457" transform="translate(58,27)"/>
<path d="M0 0 C0.99 0 1.98 0 3 0 C3 0.99 3 1.98 3 3 C3.99 3 4.98 3 6 3 C6 3.99 6 4.98 6 6 C4.02 6 2.04 6 0 6 C0 4.02 0 2.04 0 0 Z " fill="#92827A" transform="translate(21,102)"/>
<path d="M0 0 C2.97 0 5.94 0 9 0 C9 0.99 9 1.98 9 3 C6.03 3 3.06 3 0 3 C0 2.01 0 1.02 0 0 Z " fill="#AA593A" transform="translate(52,80)"/>
<path d="M0 0 C0.99 0 1.98 0 3 0 C3 2.97 3 5.94 3 9 C2.01 9 1.02 9 0 9 C0 6.03 0 3.06 0 0 Z " fill="#B4B4B4" transform="translate(133,77)"/>
<path d="M0 0 C1.98 0 3.96 0 6 0 C6 1.32 6 2.64 6 4 C4.02 4 2.04 4 0 4 C0 2.68 0 1.36 0 0 Z " fill="#4A4848" transform="translate(55,11)"/>
<path d="M0 0 C2.31 0 4.62 0 7 0 C7 0.99 7 1.98 7 3 C4.69 3 2.38 3 0 3 C0 2.01 0 1.02 0 0 Z " fill="#343434" transform="translate(111,130)"/>
<path d="M0 0 C0.99 0 1.98 0 3 0 C3 2.31 3 4.62 3 7 C2.01 7 1.02 7 0 7 C0 4.69 0 2.38 0 0 Z " fill="#DBDBDB" transform="translate(105,111)"/>
<path d="M0 0 C0.99 0 1.98 0 3 0 C3 2.31 3 4.62 3 7 C2.01 7 1.02 7 0 7 C0 4.69 0 2.38 0 0 Z " fill="#636363" transform="translate(146,86)"/>
<path d="M0 0 C0.99 0 1.98 0 3 0 C3 2.31 3 4.62 3 7 C2.01 7 1.02 7 0 7 C0 4.69 0 2.38 0 0 Z " fill="#BE5B32" transform="translate(71,61)"/>
<path d="M0 0 C2.31 0 4.62 0 7 0 C7 0.99 7 1.98 7 3 C4.69 3 2.38 3 0 3 C0 2.01 0 1.02 0 0 Z " fill="#9C9C9C" transform="translate(11,52)"/>
<path d="M0 0 C2.31 0 4.62 0 7 0 C7 0.99 7 1.98 7 3 C4.69 3 2.38 3 0 3 C0 2.01 0 1.02 0 0 Z " fill="#E2761C" transform="translate(33,43)"/>
<path d="M0 0 C2.31 0 4.62 0 7 0 C6.67 0.99 6.34 1.98 6 3 C3 4 3 4 0 3 C0 2.01 0 1.02 0 0 Z " fill="#DD792B" transform="translate(65,24)"/>
<path d="M0 0 C1.98 0 3.96 0 6 0 C6 0.99 6 1.98 6 3 C3 4 3 4 0 3 C0 2.01 0 1.02 0 0 Z " fill="#6F6F6F" transform="translate(74,133)"/>
<path d="M0 0 C0.99 0 1.98 0 3 0 C4.125 3.75 4.125 3.75 3 6 C2.01 6 1.02 6 0 6 C0 4.02 0 2.04 0 0 Z " fill="#828282" transform="translate(93,124)"/>
<path d="M0 0 C1.98 0 3.96 0 6 0 C6 0.99 6 1.98 6 3 C4.02 3.33 2.04 3.66 0 4 C0 2.68 0 1.36 0 0 Z " fill="#E17312" transform="translate(18,52)"/>
<path d="M0 0 C1.98 0 3.96 0 6 0 C6 0.99 6 1.98 6 3 C4.02 3 2.04 3 0 3 C0 2.01 0 1.02 0 0 Z " fill="#707070" transform="translate(74,146)"/>
<path d="M0 0 C1.98 0 3.96 0 6 0 C6 0.99 6 1.98 6 3 C4.02 3 2.04 3 0 3 C0 2.01 0 1.02 0 0 Z " fill="#E1E1E1" transform="translate(74,130)"/>
<path d="M0 0 C0.99 0 1.98 0 3 0 C3 1.98 3 3.96 3 6 C2.01 6 1.02 6 0 6 C0 4.02 0 2.04 0 0 Z " fill="#949494" transform="translate(65,127)"/>
<path d="M0 0 C1.98 0 3.96 0 6 0 C6 0.99 6 1.98 6 3 C4.02 3 2.04 3 0 3 C0 2.01 0 1.02 0 0 Z " fill="#A3A3A3" transform="translate(40,127)"/>
<path d="M0 0 C0.99 0 1.98 0 3 0 C3 1.98 3 3.96 3 6 C2.01 6 1.02 6 0 6 C0 4.02 0 2.04 0 0 Z " fill="#787878" transform="translate(133,90)"/>
<path d="M0 0 C1.98 0 3.96 0 6 0 C6 0.99 6 1.98 6 3 C4.02 3 2.04 3 0 3 C0 2.01 0 1.02 0 0 Z " fill="#818181" transform="translate(71,90)"/>
<path d="M0 0 C0.99 0 1.98 0 3 0 C3 1.98 3 3.96 3 6 C2.01 6 1.02 6 0 6 C0 4.02 0 2.04 0 0 Z " fill="#888888" transform="translate(146,80)"/>
<path d="M0 0 C0.99 0 1.98 0 3 0 C3 1.98 3 3.96 3 6 C2.01 6 1.02 6 0 6 C0 4.02 0 2.04 0 0 Z " fill="#C17A5B" transform="translate(77,49)"/>
<path d="M0 0 C1.98 0 3.96 0 6 0 C6 0.99 6 1.98 6 3 C4.02 3 2.04 3 0 3 C0 2.01 0 1.02 0 0 Z " fill="#7B7B7B" transform="translate(140,49)"/>
<path d="M0 0 C1.98 0 3.96 0 6 0 C6 0.99 6 1.98 6 3 C4.02 3 2.04 3 0 3 C0 2.01 0 1.02 0 0 Z " fill="#E6822A" transform="translate(27,46)"/>
<path d="M0 0 C0.99 0 1.98 0 3 0 C3 1.98 3 3.96 3 6 C2.01 6 1.02 6 0 6 C0 4.02 0 2.04 0 0 Z " fill="#AAAAAA" transform="translate(8,43)"/>
<path d="M0 0 C1.98 0 3.96 0 6 0 C6 0.99 6 1.98 6 3 C4.02 3 2.04 3 0 3 C0 2.01 0 1.02 0 0 Z " fill="#4C4B4B" transform="translate(18,33)"/>
<path d="M0 0 C1.98 0 3.96 0 6 0 C6 0.99 6 1.98 6 3 C4.02 3 2.04 3 0 3 C0 2.01 0 1.02 0 0 Z " fill="#6A6969" transform="translate(121,30)"/>
<path d="M0 0 C1.98 0 3.96 0 6 0 C6 0.99 6 1.98 6 3 C4.02 3 2.04 3 0 3 C0 2.01 0 1.02 0 0 Z " fill="#3F3F3F" transform="translate(121,27)"/>
<path d="M0 0 C1.98 0 3.96 0 6 0 C6 0.99 6 1.98 6 3 C4.02 3 2.04 3 0 3 C0 2.01 0 1.02 0 0 Z " fill="#4A4A4A" transform="translate(27,27)"/>
<path d="M0 0 C1.98 0 3.96 0 6 0 C6 0.99 6 1.98 6 3 C4.02 3 2.04 3 0 3 C0 2.01 0 1.02 0 0 Z " fill="#DB6E1B" transform="translate(71,21)"/>
<path d="M0 0 C1.98 0 3.96 0 6 0 C6 0.99 6 1.98 6 3 C4.02 3 2.04 3 0 3 C0 2.01 0 1.02 0 0 Z " fill="#6F6F6F" transform="translate(99,18)"/>
<path d="M0 0 C1.98 0 3.96 0 6 0 C6 0.99 6 1.98 6 3 C4.02 3 2.04 3 0 3 C0 2.01 0 1.02 0 0 Z " fill="#444444" transform="translate(99,15)"/>
<path d="M0 0 C1.98 0 3.96 0 6 0 C6 0.99 6 1.98 6 3 C4.02 3 2.04 3 0 3 C0 2.01 0 1.02 0 0 Z " fill="#A2A2A2" transform="translate(74,5)"/>
</svg>
