<svg xmlns="http://www.w3.org/2000/svg" version="1.1" xmlns:xlink="http://www.w3.org/1999/xlink" xmlns:svgjs="http://svgjs.dev/svgjs" width="1000" height="1000" viewBox="0 0 1000 1000"><rect width="1000" height="1000" fill="#282634"></rect><g transform="matrix(0.7,0,0,0.7,149.57575757575756,282.1265587044535)"><svg viewBox="0 0 396 247" data-background-color="#282634" preserveAspectRatio="xMidYMid meet" height="623" width="1000" xmlns="http://www.w3.org/2000/svg" xmlns:xlink="http://www.w3.org/1999/xlink"><g id="tight-bounds" transform="matrix(1,0,0,1,0.2400000000000091,-0.09999999999999432)"><svg viewBox="0 0 395.52 247.2" height="247.2" width="395.52"><g><svg></svg></g><g><svg viewBox="0 0 395.52 247.2" height="247.2" width="395.52"><g transform="matrix(1,0,0,1,39.55199999999999,91.4568251841929)"><svg viewBox="0 0 316.416 64.28634963161419" height="64.28634963161419" width="316.416"><g><svg viewBox="0 0 316.416 64.28634963161419" height="64.28634963161419" width="316.416"><g><svg viewBox="0 0 316.416 64.28634963161419" height="64.28634963161419" width="316.416"><g><svg viewBox="0 0 316.416 64.28634963161419" height="64.28634963161419" width="316.416"><g><svg viewBox="0 0 316.416 64.28634963161419" height="64.28634963161419" width="316.416"><g><svg viewBox="0 0 316.416 64.28634963161419" height="64.28634963161419" width="316.416"><g transform="matrix(1,0,0,1,0,0)"><svg width="316.416" viewBox="2.049999952316284 -36.5 223.94000244140625 45.5" height="64.28634963161419" data-palette-color="#ff4057"><path d="M31.2-27.35L31.2-27.35Q31.2-25.45 30.33-23.8 29.45-22.15 27.95-21.05 26.45-19.95 24.5-19.7L24.5-19.7 24.5-19.5Q28.4-18.7 30.65-16.2 32.9-13.7 32.9-10.05L32.9-10.05Q32.9-7.25 31.43-4.88 29.95-2.5 27.7-1.35L27.7-1.35Q26.3-0.65 24.25-0.33 22.2 0 18.5 0L18.5 0 2.05 0 2.05-2.9 6.25-3.95 6.25-32.05 2.05-33.1 2.05-36 20.35-36Q25.6-36 28.45-33.45L28.45-33.45Q29.75-32.25 30.48-30.65 31.2-29.05 31.2-27.35ZM17.65-16.95L17.65-16.95 12.75-16.95 12.75-3.75 16.75-3.75Q19.05-3.75 20.45-4 21.85-4.25 22.8-4.8L22.8-4.8Q24.15-5.5 25-7.03 25.85-8.55 25.85-10.55L25.85-10.55Q25.85-12.3 25.2-13.5 24.55-14.7 23.55-15.5L23.55-15.5Q22.65-16.2 21.25-16.57 19.85-16.95 17.65-16.95ZM17.7-32.35L12.75-32.35 12.75-20.6 17.5-20.6Q21-20.6 22.65-22.35L22.65-22.35Q23.4-23.05 23.95-24.13 24.5-25.2 24.5-26.6L24.5-26.6Q24.5-28 23.95-29.1 23.4-30.2 22.65-30.85L22.65-30.85Q21.15-32.35 17.7-32.35L17.7-32.35ZM51.35-23.35L51.35-23.35Q51.35-23.35 51.35-23.35 51.35-23.35 51.35-23.35L51.35-23.35Q50.8-23.35 50.1-22.68 49.4-22 48.82-21.1 48.25-20.2 48-19.5L48-19.5Q47.4-17.8 46.95-16 46.5-14.2 46.5-11.6L46.5-11.6 46.5-3.75 51.9-2.8 51.9 0 36.3 0 36.3-2.8 40.15-3.75 40.15-24 36.3-24.95 36.3-27 45-27 46.1-20.4 46.3-20.4Q47.45-23.8 49.4-25.65 51.35-27.5 53.7-27.5L53.7-27.5Q55.65-27.5 56.95-26.28 58.25-25.05 58.25-23L58.25-23Q58.25-21.5 57.35-20.28 56.45-19.05 54.8-19.05L54.8-19.05Q52.8-19.05 51.95-19.98 51.1-20.9 51.1-22L51.1-22Q51.1-22.35 51.12-22.53 51.15-22.7 51.35-23.35ZM84.25-12.8L84.25-12.8 66.8-12.8Q66.8-9.4 67.8-7.15L67.8-7.15Q68.59-5.45 69.95-4.53 71.3-3.6 73.3-3.6L73.3-3.6Q75.5-3.6 77.67-4.6 79.84-5.6 81.4-7.6L81.4-7.6 84.09-5.5Q82.34-3 79.37-1.25 76.4 0.5 72.05 0.5L72.05 0.5Q68.4 0.5 65.75-0.98 63.1-2.45 61.7-5.3L61.7-5.3Q60.95-6.85 60.6-8.75 60.25-10.65 60.25-12.85L60.25-12.85Q60.25-19.85 63.47-23.68 66.7-27.5 72.59-27.5L72.59-27.5Q78.05-27.5 81.22-24.33 84.4-21.15 84.4-15.55L84.4-15.55Q84.4-15 84.37-14.48 84.34-13.95 84.25-12.8ZM72.5-24.05L72.5-24.05Q67.34-24.05 66.84-16L66.84-16 77.84-16 77.84-17.3Q77.84-20.55 76.42-22.3 75-24.05 72.5-24.05ZM97.29-3.7L97.29 5.25 102.14 6.2 102.14 9 87.09 9 87.09 6.2 90.94 5.25 90.94-23.25 87.09-24.2 87.09-27 95.79-27 96.54-23.15Q98.14-25.65 100.17-26.58 102.19-27.5 104.74-27.5L104.74-27.5Q107.29-27.5 109.37-26.75 111.44-26 112.74-24.35L112.74-24.35Q114.24-22.45 115.12-19.78 115.99-17.1 115.99-14L115.99-14Q115.99-10.8 115.02-7.98 114.04-5.15 112.39-3.25L112.39-3.25Q109.59 0 104.34 0L104.34 0Q102.19 0 100.47-0.83 98.74-1.65 97.29-3.7L97.29-3.7ZM97.24-14L97.24-14Q97.24-11.25 97.69-9.25 98.14-7.25 98.89-6L98.89-6Q99.64-4.75 100.82-4.05 101.99-3.35 103.54-3.35L103.54-3.35Q105.09-3.35 106.07-4 107.04-4.65 107.64-5.7L107.64-5.7Q108.39-7 108.82-9.05 109.24-11.1 109.24-13.5L109.24-13.5Q109.24-16 108.79-18.23 108.34-20.45 107.59-21.8L107.59-21.8Q106.84-23.1 105.74-23.6 104.64-24.1 103.24-24.1L103.24-24.1Q101.69-24.1 100.64-23.55 99.59-23 98.84-21.8L98.84-21.8Q98.14-20.65 97.69-18.7 97.24-16.75 97.24-14ZM136.74-33.05L136.74-33.05Q134.84-33.05 133.12-32.25 131.39-31.45 130.34-29.95L130.34-29.95Q128.99-28 128.07-25.08 127.14-22.15 127.14-18.6L127.14-18.6Q127.14-15.05 127.89-11.95 128.64-8.85 129.99-6.75L129.99-6.75Q131.09-5.05 132.97-4.25 134.84-3.45 137.19-3.45L137.19-3.45Q145.59-3.45 147.04-11.9L147.04-11.9 151.29-11.9Q148.84 0.5 136.09 0.5L136.09 0.5Q129.19 0.5 125.09-3.5L125.09-3.5Q122.64-5.9 121.34-9.55 120.04-13.2 120.04-17.65L120.04-17.65Q120.04-22.7 121.69-26.8 123.34-30.9 126.34-33.35L126.34-33.35Q130.14-36.5 136.39-36.5L136.39-36.5Q139.49-36.5 141.44-35.7 143.39-34.9 145.29-32.85L145.29-32.85 146.29-36 150.54-36 150.54-24.2 145.99-24.2Q145.29-28.6 142.87-30.83 140.44-33.05 136.74-33.05ZM174.44-2.9L178.54-3.95 175.99-11.7 163.79-11.7 161.19-3.95 165.34-2.9 165.34 0 152.14 0 152.14-2.9 156.24-3.95 167.94-36.5 174.09-36.5 185.69-3.95 189.69-2.9 189.69 0 174.44 0 174.44-2.9ZM170.14-29.9L169.94-29.9 165.04-15.35 174.79-15.35 170.14-29.9ZM201.94-32.25L201.94-3.75 208.19-3.75Q210.89-3.75 212.79-4.58 214.69-5.4 215.99-7.05L215.99-7.05Q217.34-8.75 218.04-11.4 218.74-14.05 218.74-17.7L218.74-17.7Q218.74-24.8 215.99-28.55L215.99-28.55Q214.64-30.4 212.61-31.33 210.59-32.25 207.69-32.25L207.69-32.25 201.94-32.25ZM191.24-33.1L191.24-36 209.54-36Q216.99-36 221.14-31.8L221.14-31.8Q223.49-29.4 224.74-25.9 225.99-22.4 225.99-18.4L225.99-18.4Q225.99-14.2 224.66-10.53 223.34-6.85 220.99-4.35L220.99-4.35Q216.84 0 209.09 0L209.09 0 191.24 0 191.24-2.9 195.44-3.95 195.44-32.05 191.24-33.1Z" opacity="1" transform="matrix(1,0,0,1,0,0)" fill="#ff4057" class="undefined-text-0" data-fill-palette-color="primary" id="text-0"></path></svg></g></svg></g></svg></g></svg></g></svg></g></svg></g></svg></g><g mask="url(#2a5d5a22-d665-4773-941a-be26ab80e05e)"><g transform="matrix(3.1652996726742857, 0, 0, 3.1652996726742857, 58.98530466602881, 1.0000000000000142)"><svg xmlns="http://www.w3.org/2000/svg" xmlns:xlink="http://www.w3.org/1999/xlink" version="1.1" x="0" y="0" viewBox="6.160106182098389 11.267998695373535 87.68502807617188 77.46501922607422" enable-background="new 0 0 100 100" xml:space="preserve" height="77.46501922607422" width="87.68502807617188" class="icon-none" data-fill-palette-color="accent" id="none"><g fill="#dcdcdc" data-fill-palette-color="accent"><path d="M44.846 19.268c0.384 0 0.768-0.146 1.061-0.439l2.439-2.439v13.879c0 0.829 0.671 1.5 1.5 1.5s1.5-0.671 1.5-1.5V16.389l2.439 2.439c0.293 0.293 0.677 0.439 1.061 0.439s0.768-0.146 1.061-0.439c0.586-0.585 0.586-1.536 0-2.121l-4.998-4.998c-0.14-0.14-0.307-0.251-0.493-0.328-0.007-0.003-0.015-0.004-0.022-0.007-0.17-0.067-0.354-0.106-0.548-0.106s-0.378 0.04-0.548 0.106c-0.007 0.003-0.015 0.004-0.022 0.007-0.186 0.077-0.353 0.188-0.493 0.328l-4.998 4.998c-0.586 0.585-0.586 1.536 0 2.121C44.078 19.122 44.462 19.268 44.846 19.268z" fill="#dcdcdc" data-fill-palette-color="accent"></path><polygon points="50,36.823 30.629,46.508 49.836,56.086 68.919,46.282  " fill="#dcdcdc" data-fill-palette-color="accent"></polygon><polygon points="28.5,74.427 48.346,84.35 48.346,58.696 28.5,48.799  " fill="#dcdcdc" data-fill-palette-color="accent"></polygon><polygon points="51.346,84.504 71.5,74.427 71.5,48.329 51.346,58.684  " fill="#dcdcdc" data-fill-palette-color="accent"></polygon><path d="M21.648 76.439l-11.71 6.154 0.912-3.587c0.204-0.804-0.281-1.62-1.084-1.824-0.805-0.202-1.619 0.281-1.823 1.084l-1.742 6.852c-0.008 0.031-0.008 0.062-0.014 0.095-0.01 0.053-0.02 0.105-0.024 0.16-0.004 0.048-0.003 0.095-0.002 0.143 0 0.049 0.002 0.098 0.007 0.147 0.006 0.05 0.017 0.099 0.027 0.147 0.01 0.046 0.02 0.092 0.035 0.137 0.017 0.052 0.039 0.101 0.061 0.15 0.013 0.029 0.021 0.06 0.036 0.089 0.005 0.009 0.013 0.016 0.018 0.024 0.008 0.014 0.012 0.03 0.021 0.044 0.055 0.092 0.121 0.176 0.194 0.254 0.019 0.021 0.04 0.036 0.059 0.055 0.069 0.067 0.145 0.127 0.228 0.181 0.028 0.018 0.056 0.036 0.086 0.053 0.068 0.037 0.14 0.067 0.214 0.095 0.026 0.01 0.052 0.021 0.079 0.028 0.015 0.005 0.028 0.012 0.042 0.016 0.006 0.002 0.011 0.005 0.018 0.007l6.854 1.744c0.125 0.031 0.249 0.046 0.371 0.046 0.67 0 1.28-0.451 1.453-1.13 0.205-0.803-0.281-1.619-1.083-1.824l-3.066-0.78 11.231-5.902c0.733-0.386 1.016-1.293 0.63-2.026C23.289 76.336 22.382 76.057 21.648 76.439z" fill="#dcdcdc" data-fill-palette-color="accent"></path><path d="M93.845 85.419c-0.001-0.019-0.007-0.036-0.008-0.054-0.005-0.052-0.014-0.101-0.022-0.151-0.006-0.031-0.007-0.063-0.015-0.096l-1.742-6.852c-0.204-0.803-1.021-1.286-1.824-1.084-0.803 0.204-1.288 1.021-1.084 1.824l0.921 3.623-12.038-6.196c-0.736-0.376-1.641-0.089-2.021 0.647-0.379 0.736-0.089 1.641 0.647 2.021l11.48 5.909-3.018 0.768c-0.803 0.205-1.288 1.021-1.084 1.824 0.173 0.679 0.783 1.13 1.453 1.13 0.122 0 0.247-0.015 0.371-0.046l6.854-1.744c0.007-0.002 0.013-0.005 0.02-0.007 0.016-0.005 0.029-0.012 0.045-0.017 0.105-0.032 0.203-0.075 0.296-0.127 0.027-0.015 0.053-0.031 0.079-0.048 0.089-0.058 0.171-0.122 0.244-0.195 0.015-0.015 0.031-0.026 0.045-0.042 0.085-0.092 0.156-0.195 0.216-0.305 0.006-0.01 0.015-0.018 0.02-0.027 0.014-0.026 0.021-0.055 0.032-0.082 0.022-0.05 0.044-0.101 0.061-0.153 0.014-0.044 0.023-0.089 0.033-0.134 0.011-0.05 0.021-0.099 0.026-0.149 0.006-0.049 0.007-0.097 0.008-0.145C93.841 85.48 93.846 85.45 93.845 85.419z" fill="#dcdcdc" data-fill-palette-color="accent"></path></g></svg></g></g></svg></g><defs><mask id="8b9b8d35-6631-4b62-a857-5139feb75fa3"><rect width="640" height="400" fill="white"></rect><rect width="348.05760000000004" height="94.63927818288009" fill="black" x="145.97119999999998" y="152.68036090855995" id="transform-me" transform="matrix(1,0,0,1,-122.24000000000001,-76.4)"></rect></mask><mask id="2a5d5a22-d665-4773-941a-be26ab80e05e"><rect width="640" height="400" fill="white"></rect><rect width="348.05760000000004" height="94.63927818288009" fill="black" x="145.97119999999998" y="152.68036090855995" id="transform-me" transform="matrix(1,0,0,1,-122.24000000000001,-76.4)"></rect></mask></defs></svg><rect width="395.52" height="247.2" fill="none" stroke="none" visibility="hidden"></rect></g></svg></g></svg>